<svg width="35" height="34" viewBox="0 0 35 34" fill="none" xmlns="http://www.w3.org/2000/svg">
<path d="M31.25 0H3.75C2.75544 0 1.80161 0.37713 1.09835 1.04842C0.395088 1.71972 0 2.63019 0 3.57955L0 29.8295C0 30.7789 0.395088 31.6894 1.09835 32.3607C1.80161 33.032 2.75544 33.4091 3.75 33.4091H14.4727V22.0507H9.55078V16.7045H14.4727V12.6298C14.4727 7.99506 17.3633 5.43494 21.7906 5.43494C23.9109 5.43494 26.1281 5.79588 26.1281 5.79588V10.3449H23.6852C21.2781 10.3449 20.5273 11.7707 20.5273 13.2331V16.7045H25.9008L25.0414 22.0507H20.5273V33.4091H31.25C32.2446 33.4091 33.1984 33.032 33.9016 32.3607C34.6049 31.6894 35 30.7789 35 29.8295V3.57955C35 2.63019 34.6049 1.71972 33.9016 1.04842C33.1984 0.37713 32.2446 0 31.25 0Z" fill="white"/>
</svg>
