<svg width="35" height="34" viewBox="0 0 35 34" fill="none" xmlns="http://www.w3.org/2000/svg">
<path d="M17.5039 8.13707C12.5379 8.13707 8.53235 11.9606 8.53235 16.7008C8.53235 21.4411 12.5379 25.2646 17.5039 25.2646C22.4699 25.2646 26.4755 21.4411 26.4755 16.7008C26.4755 11.9606 22.4699 8.13707 17.5039 8.13707ZM17.5039 22.2684C14.2948 22.2684 11.6712 19.7716 11.6712 16.7008C11.6712 13.6301 14.287 11.1333 17.5039 11.1333C20.7209 11.1333 23.3366 13.6301 23.3366 16.7008C23.3366 19.7716 20.7131 22.2684 17.5039 22.2684ZM28.935 7.78677C28.935 8.8973 27.9981 9.78423 26.8424 9.78423C25.679 9.78423 24.7499 8.88984 24.7499 7.78677C24.7499 6.68369 25.6868 5.7893 26.8424 5.7893C27.9981 5.7893 28.935 6.68369 28.935 7.78677ZM34.877 9.81404C34.7443 7.13833 34.104 4.76821 32.0505 2.81546C30.0047 0.862711 27.5218 0.251547 24.7186 0.117388C21.8296 -0.0391295 13.1704 -0.0391295 10.2814 0.117388C7.48606 0.244093 5.00307 0.855258 2.94953 2.80801C0.895985 4.76075 0.263525 7.13088 0.122978 9.80659C-0.0409927 12.5643 -0.0409927 20.8299 0.122978 23.5876C0.255717 26.2633 0.895985 28.6335 2.94953 30.5862C5.00307 32.539 7.47825 33.1501 10.2814 33.2843C13.1704 33.4408 21.8296 33.4408 24.7186 33.2843C27.5218 33.1576 30.0047 32.5464 32.0505 30.5862C34.0962 28.6335 34.7365 26.2633 34.877 23.5876C35.041 20.8299 35.041 12.5717 34.877 9.81404ZM31.1447 26.5466C30.5357 28.0074 29.3567 29.1328 27.8185 29.7216C25.5151 30.5937 20.0494 30.3924 17.5039 30.3924C14.9585 30.3924 9.48494 30.5862 7.18935 29.7216C5.65895 29.1403 4.47992 28.0148 3.86308 26.5466C2.94953 24.3478 3.16035 19.1306 3.16035 16.7008C3.16035 14.2711 2.95733 9.04636 3.86308 6.85511C4.47211 5.39428 5.65114 4.26884 7.18935 3.68003C9.49275 2.80801 14.9585 3.00924 17.5039 3.00924C20.0494 3.00924 25.5229 2.81546 27.8185 3.68003C29.3489 4.26139 30.5279 5.38682 31.1447 6.85511C32.0583 9.05381 31.8475 14.2711 31.8475 16.7008C31.8475 19.1306 32.0583 24.3553 31.1447 26.5466Z" fill="white"/>
</svg>
