<svg width="17" height="17" viewBox="0 0 17 17" fill="none" xmlns="http://www.w3.org/2000/svg">
<path d="M14.3125 8.11364V7.61364H13.8125H11.1562C10.5926 7.61364 10.0625 7.10057 10.0625 6.375V1.73864C10.0625 1.01306 10.5926 0.5 11.1562 0.5H15.4062C15.9699 0.5 16.5 1.01306 16.5 1.73864V10.4318C16.5 13.3995 14.3065 15.7273 11.6875 15.7273H11.4219C11.2965 15.7273 11.125 15.6054 11.125 15.358V13.6193C11.125 13.3719 11.2965 13.25 11.4219 13.25H11.6875C13.1758 13.25 14.3125 11.9447 14.3125 10.4318V8.11364ZM4.75 8.11364V7.61364H4.25H1.59375C1.03007 7.61364 0.5 7.10057 0.5 6.375V1.73864C0.5 1.01306 1.03007 0.5 1.59375 0.5H5.84375C6.40743 0.5 6.9375 1.01306 6.9375 1.73864V10.4318C6.9375 13.3995 4.74395 15.7273 2.125 15.7273H1.85938C1.73398 15.7273 1.5625 15.6054 1.5625 15.358V13.6193C1.5625 13.3719 1.73398 13.25 1.85938 13.25H2.125C3.61328 13.25 4.75 11.9447 4.75 10.4318V8.11364Z" fill="white" stroke="black"/>
</svg>
