<svg width="17" height="17" viewBox="0 0 17 17" fill="none" xmlns="http://www.w3.org/2000/svg">
<path d="M12.25 8.11364V8.61364H12.75H15.4062C15.9699 8.61364 16.5 9.1267 16.5 9.85227V14.4886C16.5 15.2142 15.9699 15.7273 15.4062 15.7273H11.1562C10.5926 15.7273 10.0625 15.2142 10.0625 14.4886V5.79545C10.0625 2.82777 12.256 0.5 14.875 0.5H15.1406C15.266 0.5 15.4375 0.62187 15.4375 0.869318V2.60795C15.4375 2.8554 15.266 2.97727 15.1406 2.97727H14.875C13.3867 2.97727 12.25 4.28253 12.25 5.79545V8.11364ZM2.6875 8.11364V8.61364H3.1875H5.84375C6.40743 8.61364 6.9375 9.1267 6.9375 9.85227V14.4886C6.9375 15.2142 6.40743 15.7273 5.84375 15.7273H1.59375C1.03007 15.7273 0.5 15.2142 0.5 14.4886V5.79545C0.5 2.82777 2.69355 0.5 5.3125 0.5H5.57812C5.70352 0.5 5.875 0.62187 5.875 0.869318V2.60795C5.875 2.8554 5.70352 2.97727 5.57812 2.97727H5.3125C3.82422 2.97727 2.6875 4.28253 2.6875 5.79545V8.11364Z" fill="white" stroke="black"/>
</svg>
